<svg width="26" height="21" viewBox="0 0 26 21" fill="none" xmlns="http://www.w3.org/2000/svg">
<path fill-rule="evenodd" clip-rule="evenodd" d="M25.6538 0.279606C25.9748 0.538897 26.0836 0.923799 25.9336 1.2699L17.6609 20.3608C17.5008 20.7302 17.0778 20.9832 16.5936 20.9992C16.1094 21.0152 15.6623 20.7908 15.4655 20.4331L10.9228 12.1777L0.701841 8.50865C0.259038 8.3497 -0.0187643 7.98853 0.000988335 7.59747C0.020741 7.20641 0.334045 6.86472 0.791409 6.73542L24.4277 0.0536163C24.8562 -0.0675206 25.3328 0.0203158 25.6538 0.279606ZM13.2278 11.666L16.4147 17.4576L21.9919 4.58727L13.2278 11.666ZM20.3205 3.23733L4.38582 7.74196L11.5564 10.316L20.3205 3.23733Z" fill="white"/>
</svg>
